<svg width="20" height="14" viewBox="0 0 20 14" fill="none" xmlns="http://www.w3.org/2000/svg">
<path fill-rule="evenodd" clip-rule="evenodd" d="M1.81348 1.00107C1.82764 1.00034 1.84229 1 1.85693 1H18.1431C18.1577 1 18.1719 1.00037 18.186 1.00107L10 7.5502L1.81348 1.00107ZM1.0249 1.65103C1.00879 1.71704 1 1.78607 1 1.85715V11.8095C1 12.2825 1.38428 12.6667 1.85693 12.6667H18.1431C18.6157 12.6667 19 12.2825 19 11.8095V1.85715C19 1.78598 18.9912 1.71683 18.9751 1.65073L10.312 8.58093C10.1294 8.72705 9.87012 8.72705 9.6875 8.58093L1.0249 1.65103ZM1.85693 0C0.832031 0 0 0.83075 0 1.85715V11.8095C0 12.8348 0.832031 13.6667 1.85693 13.6667H18.1431C19.168 13.6667 20 12.8348 20 11.8095V1.85715C20 0.83075 19.168 0 18.1431 0H1.85693Z" fill="#B0BEC5"/>
</svg>
