<svg width="20" height="20" viewBox="0 0 20 20" fill="none" xmlns="http://www.w3.org/2000/svg">
<path fill-rule="evenodd" clip-rule="evenodd" d="M0.5 0C0.776142 0 1 0.223858 1 0.5V7.10855C1 7.38469 0.776142 7.60855 0.5 7.60855C0.223858 7.60855 0 7.38469 0 7.10855V0.5C0 0.223858 0.223858 0 0.5 0Z" transform="translate(9.5 6.60986)" fill="#FF8F00"/>
<path fill-rule="evenodd" clip-rule="evenodd" d="M10 0C10.1894 0 10.3625 0.107001 10.4472 0.276393L19.9472 19.2764C20.0247 19.4314 20.0164 19.6155 19.9253 19.7629C19.8342 19.9103 19.6733 20 19.5 20H0.500001C0.326712 20 0.165778 19.9103 0.0746751 19.7629C-0.0164282 19.6155 -0.0247102 19.4314 0.0527869 19.2764L9.55279 0.276393C9.63748 0.107001 9.81061 0 10 0ZM1.30902 19H18.691L10 1.61803L1.30902 19Z" fill="#FF8F00"/>
<path fill-rule="evenodd" clip-rule="evenodd" d="M0 0.931818C0 0.417312 0.417312 0 0.931818 0C1.44632 0 1.86364 0.417312 1.86364 0.931818C1.86364 1.44632 1.44632 1.86364 0.931818 1.86364C0.417312 1.86364 0 1.44632 0 0.931818Z" transform="translate(9.06812 15.5454)" fill="#FF8F00"/>
</svg>
