<svg width="20" height="20" viewBox="0 0 20 20" xmlns="http://www.w3.org/2000/svg">
<path fill-rule="evenodd" clip-rule="evenodd" d="M0 10.0002C0 9.7241 0.223854 9.50024 0.499991 9.50024H13.4543C13.7305 9.50024 13.9543 9.7241 13.9543 10.0002C13.9543 10.2764 13.7305 10.5002 13.4543 10.5002H0.499991C0.223854 10.5002 0 10.2764 0 10.0002Z"/>
<path d="M1.80356 6.27832C3.21949 3.16406 6.35762 1 10.0002 1C14.9705 1 19 5.02954 19 10C19 14.9712 14.9706 19 10.0002 19C6.3412 19 3.19074 16.8171 1.78391 13.6799C1.67087 13.428 1.37504 13.3154 1.12309 13.4285C0.871142 13.5415 0.758473 13.8372 0.871447 14.0894C2.43374 17.5728 5.93319 20 10.0002 20C15.5227 20 20 15.5237 20 10C20 4.47729 15.5228 0 10.0002 0C5.95132 0 2.46547 2.40625 0.893236 5.86426C0.77898 6.11572 0.890062 6.41211 1.14146 6.52637C1.39286 6.64087 1.68924 6.52954 1.80356 6.27832Z"/>
<path d="M10.3534 6.19214C10.1581 5.99683 9.84157 5.99683 9.64626 6.19214C9.45101 6.38745 9.45101 6.70386 9.64626 6.89917L12.7472 10.0002L9.64626 13.1011C9.45101 13.2964 9.45101 13.613 9.64626 13.8083C9.84157 14.0037 10.1581 14.0037 10.3534 13.8083L13.8079 10.3538C14.0031 10.1584 14.0031 9.8418 13.8079 9.64673L10.3534 6.19214Z"/>
</svg>
