<svg width="291" height="8" viewBox="0 0 291 8" fill="none" xmlns="http://www.w3.org/2000/svg">
<path fill-rule="evenodd" clip-rule="evenodd" d="M145.648 1.35492L150.271 5.97818C150.864 6.57162 151.829 6.56271 152.412 5.9584L156.772 1.43399C156.966 1.23257 157.288 1.22958 157.486 1.4274L162.053 5.99448C162.639 6.58026 163.588 6.58026 164.174 5.99448L168.73 1.43869C168.925 1.24341 169.242 1.24341 169.437 1.43869L174.04 6.0416C174.625 6.62738 175.575 6.62738 176.161 6.0416L180.782 1.42087C180.977 1.22562 181.294 1.22562 181.489 1.42087L186.073 6.00516C186.659 6.59094 187.609 6.59094 188.195 6.00516L192.718 1.48187C192.844 1.35544 193.021 1.31085 193.184 1.34814C193.272 1.36847 193.356 1.41302 193.425 1.48187L197.988 6.04504C198.574 6.63083 199.524 6.63083 200.109 6.04504L204.725 1.42984C204.92 1.23456 205.236 1.23456 205.432 1.42984L210.073 6.07077C210.659 6.65656 211.608 6.65656 212.194 6.07077L216.892 1.37347C217.086 1.17819 217.403 1.17819 217.599 1.37347L222.327 6.10184C222.913 6.68762 223.862 6.68762 224.448 6.10184L229.095 1.45483C229.291 1.25958 229.607 1.25958 229.802 1.45483L234.385 6.03723C234.971 6.62302 235.92 6.62302 236.506 6.03723L241.142 1.40186C241.336 1.2066 241.653 1.2066 241.849 1.40186L246.489 6.04193C247.074 6.62772 248.024 6.62772 248.61 6.04193L253.25 1.40234C253.445 1.20709 253.761 1.20709 253.957 1.40234L258.592 6.03766C259.178 6.62347 260.127 6.62347 260.713 6.03766L265.336 1.41519C265.523 1.228 265.824 1.21918 266.021 1.39502L271.319 6.10318C271.911 6.62939 272.811 6.60449 273.373 6.0463L278.053 1.3978C278.238 1.21463 278.532 1.20334 278.729 1.37183L284.298 6.11166C284.911 6.63345 285.827 6.57837 286.373 5.98685L291.221 0.7341L290.486 0.0558472L285.638 5.30859C285.456 5.50574 285.15 5.52411 284.946 5.35019L279.378 0.610352C278.784 0.104858 277.902 0.138733 277.349 0.688232L272.668 5.33673C272.48 5.5228 272.181 5.5311 271.983 5.35571L266.686 0.647552C266.092 0.119995 265.19 0.146545 264.628 0.708099L260.006 5.33057C259.811 5.52582 259.494 5.52582 259.299 5.33057L254.664 0.695251C254.078 0.109467 253.128 0.109467 252.542 0.695251L247.903 5.33484C247.708 5.53009 247.391 5.53009 247.196 5.33484L242.556 0.694763C241.97 0.108978 241.02 0.108978 240.434 0.694763L235.799 5.33011C235.604 5.52536 235.287 5.52536 235.092 5.33011L230.509 0.747711C229.924 0.161926 228.974 0.161926 228.388 0.747711L223.741 5.39474C223.546 5.59 223.229 5.59 223.034 5.39474L218.306 0.666351C217.72 0.0805664 216.77 0.0805664 216.184 0.666351L211.487 5.36365C211.292 5.55893 210.975 5.55893 210.78 5.36365L206.139 0.722717C205.553 0.136932 204.604 0.136932 204.018 0.722717L199.402 5.33795C199.207 5.5332 198.891 5.5332 198.695 5.33795L194.132 0.77475C193.546 0.188965 192.597 0.188965 192.011 0.77475L187.487 5.29807C187.292 5.49332 186.976 5.49332 186.78 5.29807L182.196 0.713776C181.61 0.127991 180.661 0.127991 180.075 0.713776L175.454 5.33447C175.259 5.52975 174.942 5.52975 174.747 5.33447L170.144 0.731567C169.558 0.145782 168.608 0.145782 168.023 0.731567L163.467 5.28738C163.271 5.48264 162.955 5.48264 162.76 5.28738L158.193 0.720306C157.599 0.126862 156.634 0.135773 156.052 0.740051L151.692 5.26447C151.498 5.46591 151.176 5.46887 150.978 5.27106L145.707 0L145.572 0.13504L145.486 0.0559082L140.638 5.30865C140.456 5.5058 140.15 5.52417 139.946 5.35025L134.378 0.610413C133.784 0.104919 132.902 0.138794 132.349 0.688293L127.668 5.33679C127.48 5.52286 127.181 5.53116 126.983 5.35577L121.686 0.647614C121.092 0.120056 120.19 0.146606 119.628 0.70816L115.006 5.33063C114.811 5.52588 114.494 5.52588 114.299 5.33063L109.664 0.695312C109.078 0.109528 108.128 0.109528 107.542 0.695312L102.903 5.3349C102.708 5.53015 102.391 5.53015 102.196 5.3349L97.5557 0.694824C96.9697 0.109039 96.02 0.109039 95.4341 0.694824L90.7988 5.33017C90.6035 5.52542 90.2871 5.52542 90.0918 5.33017L85.5093 0.747772C84.9238 0.161987 83.9741 0.161987 83.3882 0.747772L78.7412 5.39481C78.5459 5.59006 78.229 5.59006 78.0342 5.39481L73.3057 0.666412C72.7197 0.0806274 71.77 0.0806274 71.1841 0.666412L66.4868 5.36371C66.2915 5.55899 65.9751 5.55899 65.7798 5.36371L61.1392 0.722778C60.5532 0.136993 59.6035 0.136993 59.0176 0.722778L54.4023 5.33801C54.207 5.53326 53.8906 5.53326 53.6953 5.33801L49.1323 0.774811C48.5464 0.189026 47.5967 0.189026 47.0107 0.774811L42.4873 5.29813C42.292 5.49338 41.9756 5.49338 41.7803 5.29813L37.1963 0.713837C36.6104 0.128052 35.6606 0.128052 35.0747 0.713837L30.4541 5.33453C30.2588 5.52982 29.9424 5.52982 29.7471 5.33453L25.144 0.731628C24.5581 0.145844 23.6084 0.145844 23.0229 0.731628L18.4668 5.28745C18.2715 5.4827 17.9551 5.4827 17.7598 5.28745L13.1929 0.720367C12.5991 0.126923 11.6343 0.135834 11.0522 0.740112L6.69189 5.26453C6.49756 5.46597 6.17578 5.46893 5.97803 5.27112L0.707031 6.10352e-05L0 0.707184L5.271 5.97824C5.86426 6.57169 6.8291 6.56277 7.41162 5.95847L11.772 1.43405C11.9663 1.23264 12.2876 1.22964 12.4858 1.42746L17.0527 5.99454C17.6387 6.58032 18.5884 6.58032 19.1738 5.99454L23.73 1.43875C23.9253 1.24347 24.2417 1.24347 24.437 1.43875L29.04 6.04166C29.6255 6.62744 30.5752 6.62744 31.1611 6.04166L35.7817 1.42093C35.9771 1.22568 36.2939 1.22568 36.4888 1.42093L41.0732 6.00522C41.6592 6.591 42.6089 6.591 43.1948 6.00522L47.7178 1.48193C47.9131 1.28665 48.2295 1.28665 48.4248 1.48193L52.9883 6.0451C53.5737 6.63089 54.5239 6.63089 55.1094 6.0451L59.7246 1.4299C59.9199 1.23462 60.2363 1.23462 60.4316 1.4299L65.0728 6.07083C65.6587 6.65662 66.6084 6.65662 67.1938 6.07083L71.8916 1.37354C72.0864 1.17825 72.4033 1.17825 72.5986 1.37354L77.3267 6.1019C77.9126 6.68768 78.8623 6.68768 79.4482 6.1019L84.0952 1.4549C84.2905 1.25964 84.6069 1.25964 84.8022 1.4549L89.3848 6.03729C89.9707 6.62308 90.9204 6.62308 91.5059 6.03729L96.1416 1.40192C96.3364 1.20667 96.6533 1.20667 96.8486 1.40192L101.489 6.04199C102.074 6.62778 103.024 6.62778 103.61 6.04199L108.25 1.4024C108.445 1.20715 108.761 1.20715 108.957 1.4024L113.592 6.03772C114.178 6.62354 115.127 6.62354 115.713 6.03772L120.336 1.41525C120.523 1.22806 120.824 1.21924 121.021 1.39508L126.319 6.10324C126.911 6.62946 127.811 6.60455 128.373 6.04636L133.053 1.39786C133.238 1.21469 133.532 1.2034 133.729 1.37189L139.298 6.11172C139.911 6.63351 140.827 6.57843 141.373 5.98691L145.648 1.35492Z" transform="translate(-0.353516 0.646484)" fill="#B0BEC5"/>
</svg>
