<svg width="186" height="30" viewBox="0 0 186 30" fill="none" xmlns="http://www.w3.org/2000/svg">
<path fill-rule="evenodd" clip-rule="evenodd" d="M68.4212 5.28702C67.8005 5.28702 67.3416 5.47149 67.0431 5.8417C66.7446 6.21319 66.565 6.70851 66.5049 7.32766H69.8996C69.9481 6.67149 69.8478 6.16723 69.5979 5.81426C69.3492 5.46255 68.9568 5.28702 68.4212 5.28702ZM71.8165 11.9751C71.4508 12.2668 70.9548 12.5132 70.3278 12.7143C69.7021 12.914 69.0354 13.0149 68.3298 13.0149C66.8577 13.0149 65.7807 12.5866 65.0994 11.73C64.4174 10.8728 64.0767 9.69638 64.0767 8.20277C64.0767 6.59936 64.4602 5.39553 65.2272 4.59383C65.9936 3.79149 67.0706 3.39 68.4582 3.39C68.9197 3.39 69.3697 3.45191 69.8082 3.57255C70.246 3.69447 70.6359 3.89553 70.9766 4.17383C71.3173 4.45468 71.5915 4.83 71.7979 5.30362C72.005 5.77851 72.1086 6.3683 72.1086 7.0717C72.1086 7.32766 72.0926 7.60085 72.0625 7.89319C72.0319 8.18489 71.9865 8.48808 71.9257 8.80468H66.4499C66.4864 9.56936 66.6845 10.147 67.0431 10.5357C67.4017 10.9238 67.9827 11.1198 68.7855 11.1198C69.2853 11.1198 69.7321 11.0432 70.1278 10.8913C70.5234 10.7387 70.8245 10.5843 71.0309 10.4266L71.8165 11.9751ZM57.196 3.6466H58.4551V1.93213L60.8277 1.25808V3.6466H63.0546V5.65021H60.8277V9.15128C60.8277 9.78191 60.8917 10.2351 61.0195 10.5083C61.1473 10.7821 61.3883 10.9187 61.7411 10.9187C61.984 10.9187 62.1937 10.8938 62.3701 10.8453C62.5465 10.7968 62.7446 10.724 62.9632 10.6277L63.3832 12.4494C63.0546 12.6083 62.6711 12.7423 62.2333 12.8509C61.7955 12.9594 61.3512 13.0149 60.9013 13.0149C60.0614 13.0149 59.4446 12.7991 59.0483 12.3683C58.6526 11.9362 58.4551 11.2289 58.4551 10.2447V5.65021H57.196V3.6466ZM52.0487 10.9545C52.5229 10.9545 52.9007 10.8491 53.18 10.6366C53.46 10.424 53.6671 10.1955 53.8013 9.95298V8.76766C53.4242 8.73064 53.0618 8.72553 52.7147 8.74915C52.3676 8.77404 52.0608 8.8283 51.793 8.91383C51.5252 8.99809 51.3124 9.12064 51.1538 9.2783C50.9966 9.43596 50.9167 9.63638 50.9167 9.87894C50.9167 10.2191 51.0177 10.4847 51.2184 10.6717C51.4185 10.8606 51.6959 10.9545 52.0487 10.9545ZM49.0375 4.17383C49.5239 3.95553 50.1017 3.78255 50.771 3.65489C51.4402 3.52787 52.1394 3.4634 52.87 3.4634C53.5028 3.4634 54.032 3.54 54.4577 3.69064C54.8841 3.84255 55.2222 4.05957 55.4708 4.33915C55.7201 4.61745 55.8965 4.95255 56.0001 5.34064C56.1042 5.73 56.156 6.16723 56.156 6.65362C56.156 7.18851 56.1375 7.72532 56.1004 8.26596C56.0646 8.80723 56.0429 9.33894 56.0371 9.86106C56.0307 10.3832 56.0461 10.8913 56.0819 11.3834C56.1183 11.8755 56.2104 12.3402 56.3561 12.7768H54.4213L54.0378 11.52H53.947C53.7041 11.8966 53.366 12.2221 52.9339 12.4953C52.5019 12.7685 51.9451 12.9051 51.2638 12.9051C50.8381 12.9051 50.4546 12.8419 50.1139 12.7143C49.7732 12.5866 49.4811 12.404 49.2376 12.1666C48.9947 11.9304 48.8061 11.6502 48.6719 11.3285C48.5377 11.0068 48.4719 10.6443 48.4719 10.2447C48.4719 9.68553 48.5959 9.21383 48.8458 8.83213C49.095 8.44851 49.4543 8.13894 49.9228 7.90149C50.3907 7.66532 50.9506 7.50128 51.6019 7.41C52.2532 7.31872 52.9793 7.29128 53.7828 7.32766C53.8684 6.6466 53.8186 6.1583 53.637 5.86021C53.4536 5.56277 53.0464 5.41404 52.413 5.41404C51.9394 5.41404 51.437 5.46255 50.9078 5.56021C50.3785 5.6566 49.9432 5.78426 49.6032 5.94255L49.0375 4.17383ZM46.1715 9.69638C46.1715 10.1221 46.2258 10.4317 46.3357 10.6277C46.4457 10.8217 46.6214 10.9187 46.8643 10.9187C47.0107 10.9187 47.1539 10.9072 47.2939 10.8823C47.4338 10.8574 47.6077 10.8038 47.8141 10.7183L48.0692 12.5764C47.8749 12.6734 47.577 12.7723 47.1756 12.8694C46.7742 12.9664 46.3594 13.0149 45.9343 13.0149C45.2402 13.0149 44.7109 12.8534 44.346 12.5323C43.981 12.2094 43.7982 11.6789 43.7982 10.9372V5.53564e-08H46.1715V9.69638ZM37.9395 5.39553C37.4768 5.39553 37.115 5.5117 36.8536 5.74213C36.5921 5.97319 36.3882 6.31851 36.2425 6.78064V10.5721C36.4125 10.7062 36.5979 10.8121 36.7986 10.8913C36.9993 10.9698 37.2639 11.0094 37.5931 11.0094C38.2745 11.0094 38.7852 10.7694 39.1252 10.29C39.4665 9.81 39.6372 9.01723 39.6372 7.91043C39.6372 7.10808 39.5029 6.48894 39.2358 6.0517C38.968 5.61511 38.5359 5.39553 37.9395 5.39553ZM33.8693 3.6466H35.6027L35.8769 4.74H35.9498C36.2668 4.27723 36.6407 3.93766 37.0722 3.71809C37.5049 3.50043 38.0303 3.39 38.6516 3.39C39.7951 3.39 40.6535 3.75255 41.2249 4.47511C41.797 5.19702 42.0833 6.36192 42.0833 7.96532C42.0833 8.74404 41.9913 9.44489 41.8091 10.0711C41.6263 10.6972 41.3559 11.2289 40.9967 11.6655C40.6381 12.1028 40.1996 12.4372 39.6826 12.6683C39.1655 12.8994 38.5723 13.0149 37.9031 13.0149C37.526 13.0149 37.2153 12.9868 36.9725 12.9319C36.7289 12.8783 36.4854 12.7896 36.2425 12.6683V16.4049H33.8693V3.6466ZM24.3596 12.7602V7.80128C24.3596 6.96255 24.2804 6.3683 24.1218 6.01532C23.9646 5.66362 23.6361 5.48617 23.1362 5.48617C22.7227 5.48617 22.3884 5.59915 22.1321 5.82383C21.877 6.04787 21.6827 6.33638 21.5485 6.68936V12.7602H19.1765V3.6466H21.0193L21.2928 4.84851H21.3657C21.6457 4.45979 22.0023 4.12021 22.4338 3.82851C22.8665 3.53617 23.4232 3.39 24.1046 3.39C24.6881 3.39 25.1656 3.50936 25.537 3.74617C25.9077 3.98362 26.1972 4.38128 26.4037 4.94042C26.6836 4.46681 27.0429 4.08957 27.4807 3.81C27.9185 3.53043 28.4484 3.39 29.0684 3.39C29.5798 3.39 30.015 3.45191 30.3736 3.57255C30.7328 3.69447 31.0249 3.90319 31.2499 4.20128C31.4749 4.49936 31.6424 4.89702 31.7517 5.39553C31.8616 5.89277 31.9159 6.52532 31.9159 7.29128V12.7602H29.5433V7.63787C29.5433 6.92106 29.4673 6.38298 29.3151 6.02426C29.1637 5.66617 28.8255 5.48617 28.302 5.48617C27.8764 5.48617 27.5389 5.6017 27.2889 5.83277C27.0397 6.06383 26.8537 6.38043 26.7322 6.78064V12.7602H24.3596ZM13.81 5.28702C13.1887 5.28702 12.7298 5.47149 12.432 5.8417C12.1335 6.21319 11.9539 6.70851 11.8931 7.32766H15.2878C15.3364 6.67149 15.2367 6.16723 14.9867 5.81426C14.7375 5.46255 14.345 5.28702 13.81 5.28702ZM17.2047 11.9751C16.8391 12.2668 16.3437 12.5132 15.7173 12.7143C15.0909 12.914 14.4243 13.0149 13.718 13.0149C12.246 13.0149 11.1696 12.5866 10.4876 11.73C9.80622 10.8728 9.46555 9.69638 9.46555 8.20277C9.46555 6.59936 9.84905 5.39553 10.6154 4.59383C11.3824 3.79149 12.4588 3.39 13.8465 3.39C14.3086 3.39 14.7592 3.45191 15.1964 3.57255C15.6349 3.69447 16.0241 3.89553 16.3648 4.17383C16.7061 4.45468 16.9797 4.83 17.1861 5.30362C17.3932 5.77851 17.4968 6.3683 17.4968 7.0717C17.4968 7.32766 17.4808 7.60085 17.4514 7.89319C17.4214 8.18489 17.3747 8.48808 17.314 8.80468H11.8382C11.8752 9.56936 12.0727 10.147 12.432 10.5357C12.7905 10.9238 13.3715 11.1198 14.1744 11.1198C14.6735 11.1198 15.1203 11.0432 15.5166 10.8913C15.9123 10.7387 16.2133 10.5843 16.4198 10.4266L17.2047 11.9751ZM9.96602 2.22447H6.24282V12.7602H3.74237V2.22447H2.06536e-06V5.53564e-08H9.96602V2.22447Z" transform="translate(48.3356 6.7253)" fill="#243238"/>
<path fill-rule="evenodd" clip-rule="evenodd" d="M62.6794 5.86915C62.3023 5.73574 61.961 5.66872 61.6568 5.66872C61.2311 5.66872 60.8757 5.78106 60.5893 6.00638C60.303 6.2317 60.1119 6.51957 60.0141 6.87191V12.7602H57.6415V3.6466H59.4848L59.759 4.84787H59.8319C60.039 4.39915 60.319 4.05255 60.6718 3.81C61.024 3.56745 61.4382 3.44489 61.9124 3.44489C62.2282 3.44489 62.588 3.51255 62.9894 3.6466L62.6794 5.86915ZM52.2749 5.28702C51.6543 5.28702 51.1954 5.47149 50.8969 5.8417C50.599 6.21319 50.4201 6.70787 50.3587 7.32766H53.754C53.8026 6.67149 53.7016 6.16723 53.4523 5.81426C53.203 5.46255 52.8106 5.28702 52.2749 5.28702ZM55.6709 11.9751C55.3053 12.2662 54.8086 12.5132 54.1829 12.7143C53.5559 12.914 52.8898 13.0149 52.1835 13.0149C50.7115 13.0149 49.6345 12.5866 48.9531 11.73C48.2711 10.8728 47.9311 9.69638 47.9311 8.20277C47.9311 6.59936 48.314 5.39553 49.081 4.59383C49.8474 3.79149 50.9244 3.39 52.312 3.39C52.7741 3.39 53.2248 3.45192 53.662 3.57255C54.1011 3.69447 54.4897 3.89553 54.8304 4.17383C55.171 4.45468 55.4453 4.83 55.6523 5.30362C55.8588 5.77851 55.9623 6.3683 55.9623 7.0717C55.9623 7.32766 55.947 7.60085 55.9163 7.89319C55.8863 8.18489 55.8409 8.48745 55.7795 8.80468H50.3044C50.3402 9.56936 50.5383 10.147 50.8969 10.5357C51.2561 10.9238 51.8378 11.1198 52.6406 11.1198C53.1391 11.1198 53.5859 11.0432 53.9815 10.8913C54.3772 10.7387 54.6782 10.5843 54.8853 10.4266L55.6709 11.9751ZM41.0498 3.6466H42.3089V1.93213L44.6822 1.25809V3.6466H46.9091V5.65021H44.6822V9.15128C44.6822 9.78192 44.7461 10.2351 44.8739 10.5083C45.0018 10.7821 45.2421 10.9187 45.5949 10.9187C45.8378 10.9187 46.0481 10.8938 46.2245 10.8453C46.4016 10.7968 46.5984 10.724 46.8177 10.6277L47.2376 12.4494C46.9091 12.6083 46.5256 12.7423 46.0877 12.8509C45.6493 12.9594 45.2057 13.0149 44.7551 13.0149C43.9158 13.0149 43.2984 12.7991 42.9027 12.3683C42.5071 11.9362 42.3089 11.2283 42.3089 10.244V5.65021H41.0498V3.6466ZM38.075 10.244C38.075 10.0015 37.9715 9.80681 37.7644 9.66128C37.5579 9.51447 37.3023 9.3817 36.998 9.25915C36.6938 9.13787 36.3588 9.01468 35.9939 8.88574C35.6283 8.75808 35.2946 8.58255 34.9904 8.35787C34.6861 8.13255 34.4304 7.84787 34.2234 7.50128C34.0169 7.15468 33.9134 6.70787 33.9134 6.16085C33.9134 5.26213 34.1812 4.57532 34.7162 4.10106C35.2518 3.62745 36.0246 3.39 37.0344 3.39C37.728 3.39 38.355 3.4634 38.9149 3.60894C39.4742 3.75447 39.9127 3.91915 40.2284 4.10106L39.6992 5.81426C39.4192 5.70511 39.067 5.59021 38.6407 5.46766C38.215 5.34702 37.7823 5.28702 37.3451 5.28702C36.6388 5.28702 36.286 5.56021 36.286 6.10596C36.286 6.32489 36.3895 6.50043 36.5966 6.63447C36.8037 6.76851 37.0587 6.89298 37.363 7.00851C37.6672 7.12468 38.0022 7.24915 38.3665 7.38255C38.7321 7.51532 39.067 7.68894 39.3713 7.90149C39.6749 8.11404 39.9299 8.39043 40.137 8.73064C40.3441 9.07213 40.4476 9.50936 40.4476 10.043C40.4476 10.9672 40.1523 11.693 39.5617 12.2221C38.9718 12.7494 38.0865 13.0149 36.9066 13.0149C36.2617 13.0149 35.6564 12.9319 35.0907 12.7685C34.5251 12.6038 34.0655 12.4136 33.712 12.1947L34.3697 10.4266C34.6491 10.5843 35.0204 10.7387 35.4832 10.8913C35.9453 11.0432 36.4202 11.1198 36.9066 11.1198C37.2594 11.1198 37.5426 11.0528 37.7548 10.9187C37.9683 10.7847 38.075 10.5606 38.075 10.244ZM29.9339 12.7602V7.58234C29.9339 6.84192 29.8271 6.30702 29.6143 5.9783C29.4014 5.65021 29.0396 5.48617 28.5289 5.48617C28.0783 5.48617 27.698 5.61702 27.388 5.87872C27.078 6.13979 26.8562 6.46532 26.722 6.85404V12.7602H24.3487V3.6466H26.2292L26.5028 4.84787H26.5763C26.8562 4.45979 27.2263 4.12021 27.6891 3.82851C28.1518 3.53617 28.7475 3.39 29.4781 3.39C29.9281 3.39 30.3295 3.45192 30.6823 3.57255C31.0358 3.69447 31.3336 3.89553 31.5772 4.17383C31.8201 4.45468 32.0029 4.83383 32.1243 5.31319C32.2464 5.79319 32.3071 6.38681 32.3071 7.09021V12.7602H29.9339ZM16.5546 8.20277C16.5546 8.60298 16.5911 8.97447 16.6646 9.31468C16.7374 9.65489 16.8474 9.95234 16.9931 10.2077C17.1395 10.463 17.3306 10.6602 17.5677 10.7994C17.8055 10.9398 18.0887 11.0094 18.4172 11.0094C19.0378 11.0094 19.5 10.7847 19.8036 10.3347C20.1078 9.88596 20.2599 9.17426 20.2599 8.20277C20.2599 7.36468 20.12 6.68681 19.84 6.17043C19.5607 5.65404 19.0864 5.39553 18.4172 5.39553C17.833 5.39553 17.376 5.61511 17.0474 6.0517C16.7189 6.48894 16.5546 7.20575 16.5546 8.20277ZM14.1092 8.20277C14.1092 6.65936 14.4863 5.47149 15.2411 4.63979C15.9954 3.80617 17.0545 3.39 18.4172 3.39C19.1471 3.39 19.7793 3.50553 20.3149 3.7366C20.8505 3.96702 21.2948 4.29319 21.6476 4.71128C22.0004 5.13191 22.265 5.63872 22.4414 6.23426C22.6179 6.82915 22.7067 7.48468 22.7067 8.20277C22.7067 9.74489 22.3315 10.9334 21.5837 11.7651C20.8358 12.5987 19.7793 13.0149 18.4172 13.0149C17.6873 13.0149 17.0545 12.8994 16.5188 12.6683C15.9832 12.4372 15.5364 12.1117 15.1766 11.693C14.818 11.2749 14.5502 10.7668 14.3738 10.1706C14.1974 9.57638 14.1092 8.91957 14.1092 8.20277ZM9.91169 6.14234L10.1846 3.60894H10.076L9.29041 5.65021L6.57136 10.4081H5.76792L2.90186 5.63362L2.09905 3.60894H2.00765L2.37326 6.12383V12.7602H5.20459e-06V-1.19383e-07H2.28185L5.69505 5.83277L6.29651 7.29064H6.37002L6.9178 5.79638L10.1488 -1.19383e-07H12.4121V12.7602H9.91169V6.14234Z" transform="translate(122.942 6.72536)" fill="#243238"/>
<path fill-rule="evenodd" clip-rule="evenodd" d="M8.25008 8.475C4.94813 8.475 2.2482 5.90378 2.03955 2.65455C2.72565 2.80658 3.4209 2.93392 4.12455 3.0357C4.49258 4.97955 6.19913 6.45 8.25008 6.45C8.67832 6.45 9.0915 6.3855 9.48075 6.2664L9.32708 3.50152L11.4418 4.97835C11.9079 4.43363 12.2368 3.76852 12.3756 3.0357C13.0792 2.93392 13.7745 2.80665 14.4606 2.65455C14.252 5.90378 11.552 8.475 8.25008 8.475ZM16.5 0H16.4995C16.4046 0.030975 16.3094 0.0613502 16.2141 0.0912752C15.5725 0.2928 14.9207 0.470775 14.2591 0.62385C13.6026 0.7758 12.9367 0.903225 12.2625 1.00545C10.9539 1.20382 9.61403 1.3068 8.25008 1.3068C6.88613 1.3068 5.54625 1.20382 4.23765 1.00545C3.56348 0.903225 2.89755 0.7758 2.24107 0.62385C1.5795 0.470775 0.9276 0.2928 0.28605 0.0912752C0.190725 0.0613502 0.0955503 0.030975 0.000750283 0H-2.03705e-08C-2.03705e-08 0 7.50815e-05 2.20747 7.50815e-05 2.25C7.50815e-05 6.80632 3.69375 10.5 8.25008 10.5C12.8048 10.5 16.4974 6.80888 16.5 2.25472V0Z" transform="translate(11.25 9.75)" fill="#243238"/>
<path fill-rule="evenodd" clip-rule="evenodd" d="M33.3674 22.1834L29.3065 19.3483L29.6291 25.1411C26.6769 26.9391 23.2094 27.975 19.5 27.975C15.7913 27.975 12.3244 26.9395 9.37245 25.1422L9.69518 19.3471L5.6325 22.1834C4.2342 20.7691 3.04995 19.1427 2.1342 17.3557C2.35815 16.4595 2.64878 15.5897 3.00218 14.7527C3.33188 13.9719 3.71595 13.2198 4.14862 12.5002C3.80895 11.7296 3.52567 10.9288 3.30382 10.1027C2.93047 8.71237 2.73023 7.25122 2.73023 5.74312C2.73023 4.9392 2.78805 4.149 2.89747 3.3753L8.70533 7.43092C9.28238 6.99397 9.88665 6.59115 10.5154 6.2256C13.1562 4.69005 16.2251 3.80993 19.5 3.80993C22.7748 3.80993 25.8438 4.69005 28.4846 6.2256C29.1133 6.59115 29.7175 6.99397 30.2947 7.43092L36.1025 3.3753C36.2118 4.149 36.2697 4.9392 36.2697 5.74312C36.2697 7.25122 36.0694 8.71237 35.6961 10.1026C35.4743 10.9288 35.191 11.7296 34.8513 12.5002C35.284 13.2198 35.6681 13.9719 35.9977 14.7528C36.3512 15.5897 36.6418 16.4595 36.8657 17.3557C35.95 19.1427 34.7657 20.7691 33.3674 22.1834ZM38.0642 14.4588C37.7818 13.7365 37.458 13.0352 37.0966 12.3568C37.8703 10.2994 38.2948 8.07098 38.2948 5.74312C38.2948 4.51073 38.1749 3.30652 37.9483 2.14035C37.9453 2.12445 37.9424 2.10855 37.9392 2.09265C37.7989 1.37978 37.6182 0.68145 37.3997 0L30.2957 4.96088C27.1848 2.9517 23.4788 1.78492 19.5 1.78492C15.5212 1.78492 11.8151 2.9517 8.70428 4.96088L1.6002 0C1.38172 0.68145 1.20105 1.37978 1.06065 2.09265C1.05758 2.10855 1.05465 2.12453 1.0515 2.14042C0.825075 3.3066 0.70515 4.51073 0.70515 5.74312C0.70515 8.07098 1.1295 10.2994 1.90328 12.3568C1.54192 13.0352 1.21815 13.7365 0.935775 14.4588C0.5412 15.4684 0.226875 16.5181 0 17.6C0.473775 18.6107 1.02262 19.5792 1.6416 20.4967C2.32927 21.5161 3.10222 22.4733 3.94972 23.3585C4.42627 23.8562 4.92645 24.331 5.44852 24.7813L7.44143 23.3896L7.2852 26.1995C7.91573 26.6348 8.5698 27.0385 9.2466 27.4058C12.295 29.0602 15.7878 30 19.5 30C23.2129 30 26.7062 29.0599 29.755 27.405C30.4318 27.0376 31.0859 26.6338 31.7164 26.1984L31.5603 23.3909L33.5514 24.7813C34.0735 24.331 34.5737 23.8562 35.0502 23.3585C35.8977 22.4734 36.6707 21.5162 37.3583 20.4967C37.9773 19.5792 38.5261 18.6107 39 17.6C38.773 16.5181 38.4587 15.4684 38.0642 14.4588Z" fill="#243238"/>
</svg>
